<svg width="759" height="640" viewBox="0 0 759 640" fill="none" xmlns="http://www.w3.org/2000/svg">
<g filter="url(#filter0_d)">
<path d="M148.892 385.853C166.417 393.654 186.643 385.05 194.067 366.635C201.491 348.22 193.303 326.967 175.778 319.166C158.252 311.365 138.027 319.969 130.603 338.384C123.178 356.799 131.367 378.051 148.892 385.853Z" fill="#FF0B70"/>
<path d="M156.019 383.27C173.545 391.071 193.77 382.467 201.194 364.052C208.619 345.637 200.43 324.385 182.905 316.583C165.38 308.782 145.154 317.386 137.73 335.801C130.306 354.216 138.494 375.469 156.019 383.27Z" fill="#60006B"/>
<path d="M602.503 499.177L209.891 324.409L209.437 325.534L602.049 500.303L602.503 499.177Z" fill="#1B151C"/>
<path d="M510.545 173.534L371.192 111.502L372.409 108.484L309.221 80.3562L308.004 83.3742L168.077 21.0866C166.839 20.5355 165.51 20.2461 164.165 20.2348C162.821 20.2235 161.488 20.4905 160.242 21.0206C158.996 21.5507 157.861 22.3335 156.903 23.3243C155.945 24.3152 155.182 25.4946 154.657 26.7953L73.8205 227.3C72.7614 229.927 72.7389 232.889 73.7577 235.533C74.7766 238.177 76.7535 240.288 79.2534 241.401L421.722 393.848C424.222 394.961 427.04 394.985 429.557 393.914C432.073 392.844 434.082 390.767 435.141 388.14L515.978 187.635C516.502 186.334 516.778 184.937 516.789 183.525C516.799 182.112 516.545 180.711 516.041 179.402C515.536 178.093 514.791 176.9 513.848 175.894C512.905 174.887 511.783 174.085 510.545 173.534V173.534Z" fill="#1B151C"/>
<path d="M500.276 189.609L164.23 40.0207L83.9246 239.209L419.97 388.797L500.276 189.609Z" fill="#60006B"/>
<path d="M334.156 109.255C336.06 110.102 338.257 109.167 339.063 107.167C339.869 105.167 338.98 102.859 337.077 102.011C335.173 101.164 332.976 102.099 332.17 104.099C331.363 106.099 332.253 108.407 334.156 109.255Z" fill="#60006B"/>
<path opacity="0.1" d="M323.867 346.018L83.9246 239.21L164.23 40.021L323.867 346.018Z" fill="#ED0D69"/>
<path d="M142.516 247.71C160.355 255.651 180.944 246.892 188.501 228.147C196.059 209.401 187.724 187.768 169.884 179.826C152.044 171.885 131.455 180.644 123.898 199.389C116.34 218.135 124.676 239.769 142.516 247.71Z" fill="#FF0B70"/>
<path d="M398.455 270.987L367.065 257.014L364.286 263.906L395.677 277.879L398.455 270.987Z" fill="#1B151C"/>
<path d="M458.038 234.219L350.749 186.46L349.558 189.414L456.847 237.173L458.038 234.219Z" fill="#1B151C"/>
<path d="M454.268 243.573L346.979 195.814L345.788 198.768L453.077 246.527L454.268 243.573Z" fill="#1B151C"/>
<path d="M450.496 252.927L343.207 205.168L342.016 208.122L449.305 255.881L450.496 252.927Z" fill="#1B151C"/>
<path d="M446.726 262.28L339.437 214.521L338.246 217.475L445.535 265.234L446.726 262.28Z" fill="#1B151C"/>
<path d="M442.954 271.634L335.665 223.875L334.474 226.829L441.763 274.588L442.954 271.634Z" fill="#1B151C"/>
<path d="M478.085 184.497L464.967 178.658L459.409 192.442L472.528 198.282L478.085 184.497Z" fill="#FF0B70"/>
<path d="M476.038 207.393L460.109 200.302L466.857 183.564L482.786 190.654L476.038 207.393ZM461.095 199.882L475.639 206.357L481.8 191.074L467.256 184.6L461.095 199.882Z" fill="#1B151C"/>
<path d="M443.503 395.001L410.707 380.403L411.708 377.92C411.734 377.855 411.748 377.786 411.749 377.715C411.749 377.645 411.736 377.576 411.711 377.51C411.686 377.445 411.649 377.386 411.602 377.336C411.555 377.286 411.5 377.246 411.438 377.219L400.194 372.213C400.132 372.186 400.066 372.172 399.999 372.171C399.933 372.171 399.866 372.184 399.804 372.21C399.743 372.237 399.686 372.275 399.639 372.325C399.591 372.374 399.553 372.433 399.527 372.497L398.526 374.98L391.498 371.852L392.499 369.369C392.525 369.304 392.539 369.235 392.54 369.165C392.54 369.094 392.527 369.025 392.502 368.96C392.477 368.895 392.44 368.835 392.393 368.785C392.347 368.735 392.291 368.695 392.229 368.668L380.985 363.663C380.923 363.635 380.857 363.621 380.79 363.62C380.724 363.62 380.657 363.633 380.595 363.659C380.534 363.686 380.477 363.725 380.429 363.774C380.382 363.823 380.344 363.882 380.318 363.946L379.317 366.429L372.289 363.301L373.29 360.818C373.316 360.754 373.33 360.684 373.331 360.614C373.331 360.544 373.318 360.474 373.293 360.409C373.268 360.344 373.231 360.285 373.184 360.235C373.138 360.185 373.082 360.145 373.02 360.117L361.776 355.112C361.714 355.085 361.648 355.07 361.582 355.07C361.515 355.069 361.448 355.082 361.386 355.109C361.325 355.135 361.268 355.174 361.221 355.223C361.173 355.272 361.135 355.331 361.109 355.396L360.108 357.879L353.08 354.75L354.081 352.267C354.107 352.203 354.121 352.133 354.122 352.063C354.122 351.993 354.109 351.923 354.084 351.858C354.059 351.793 354.022 351.734 353.975 351.684C353.928 351.634 353.873 351.594 353.811 351.567L342.567 346.561C342.505 346.534 342.439 346.519 342.372 346.519C342.306 346.518 342.239 346.532 342.177 346.558C342.116 346.584 342.059 346.623 342.011 346.672C341.964 346.722 341.926 346.78 341.9 346.845L340.899 349.328L333.871 346.2L334.872 343.717C334.898 343.652 334.912 343.583 334.913 343.512C334.913 343.442 334.9 343.373 334.875 343.307C334.85 343.242 334.813 343.183 334.766 343.133C334.72 343.083 334.664 343.043 334.602 343.016L323.358 338.01C323.296 337.983 323.23 337.969 323.163 337.968C323.097 337.968 323.03 337.981 322.968 338.007C322.907 338.034 322.85 338.072 322.803 338.122C322.755 338.171 322.717 338.23 322.691 338.294L321.69 340.777L314.662 337.649L315.663 335.166C315.689 335.101 315.703 335.032 315.703 334.962C315.704 334.891 315.691 334.822 315.666 334.757C315.641 334.692 315.604 334.632 315.557 334.582C315.51 334.532 315.455 334.492 315.393 334.465L304.149 329.46C304.087 329.432 304.021 329.418 303.954 329.417C303.888 329.417 303.821 329.43 303.759 329.456C303.698 329.483 303.641 329.522 303.593 329.571C303.546 329.62 303.508 329.679 303.482 329.743L302.481 332.226L295.453 329.098L296.454 326.615C296.48 326.551 296.494 326.481 296.494 326.411C296.495 326.341 296.482 326.271 296.457 326.206C296.432 326.141 296.395 326.082 296.348 326.032C296.301 325.982 296.246 325.942 296.184 325.914L208.104 286.706C208.042 286.679 207.976 286.664 207.909 286.664C207.843 286.663 207.776 286.676 207.714 286.703C207.652 286.729 207.596 286.768 207.548 286.817C207.501 286.866 207.463 286.925 207.437 286.99L206.436 289.473L199.408 286.344L200.409 283.861C200.435 283.797 200.449 283.727 200.449 283.657C200.45 283.587 200.437 283.517 200.412 283.452C200.387 283.387 200.35 283.328 200.303 283.278C200.256 283.228 200.201 283.188 200.139 283.161L188.895 278.155C188.833 278.128 188.767 278.113 188.7 278.113C188.634 278.112 188.567 278.126 188.505 278.152C188.443 278.178 188.387 278.217 188.339 278.266C188.292 278.316 188.254 278.374 188.228 278.439L187.227 280.922L180.199 277.794L181.2 275.311C181.226 275.246 181.24 275.177 181.24 275.106C181.241 275.036 181.228 274.967 181.203 274.901C181.178 274.836 181.141 274.777 181.094 274.727C181.047 274.677 180.992 274.637 180.93 274.61L169.686 269.605C169.624 269.577 169.558 269.563 169.491 269.562C169.425 269.562 169.358 269.575 169.296 269.601C169.234 269.628 169.178 269.667 169.13 269.716C169.083 269.765 169.045 269.824 169.019 269.888L168.018 272.371L160.99 269.243L161.991 266.76C162.017 266.695 162.031 266.626 162.031 266.556C162.032 266.485 162.019 266.416 161.994 266.351C161.969 266.286 161.932 266.226 161.885 266.176C161.838 266.126 161.783 266.086 161.721 266.059L150.477 261.054C150.415 261.026 150.349 261.012 150.282 261.011C150.216 261.011 150.149 261.024 150.087 261.05C150.025 261.077 149.969 261.116 149.921 261.165C149.874 261.214 149.836 261.273 149.81 261.338L148.809 263.82L141.781 260.692L142.782 258.209C142.808 258.145 142.822 258.075 142.822 258.005C142.823 257.935 142.81 257.865 142.785 257.8C142.76 257.735 142.723 257.676 142.676 257.626C142.629 257.576 142.574 257.536 142.512 257.508L131.268 252.503C131.206 252.476 131.14 252.461 131.073 252.461C131.007 252.46 130.94 252.473 130.878 252.5C130.816 252.526 130.76 252.565 130.712 252.614C130.665 252.664 130.627 252.722 130.601 252.787L129.6 255.27L122.572 252.141L123.573 249.658C123.599 249.594 123.613 249.524 123.613 249.454C123.614 249.384 123.601 249.314 123.576 249.249C123.551 249.184 123.514 249.125 123.467 249.075C123.42 249.025 123.365 248.985 123.303 248.958L112.059 243.952C111.997 243.925 111.931 243.911 111.864 243.91C111.798 243.909 111.731 243.923 111.669 243.949C111.607 243.975 111.551 244.014 111.503 244.064C111.456 244.113 111.418 244.171 111.392 244.236L110.391 246.719L103.363 243.591L104.364 241.108C104.39 241.043 104.404 240.974 104.404 240.903C104.405 240.833 104.392 240.764 104.367 240.698C104.342 240.633 104.305 240.574 104.258 240.524C104.211 240.474 104.156 240.434 104.094 240.407L92.8498 235.402C92.7883 235.374 92.7222 235.36 92.6554 235.359C92.5886 235.359 92.5223 235.372 92.4604 235.398C92.3985 235.425 92.3421 235.464 92.2944 235.513C92.2468 235.562 92.2089 235.621 92.1828 235.685L91.1818 238.168L69.6302 228.575C66.6481 227.247 63.2862 227.219 60.2841 228.496C57.2821 229.773 54.8858 232.251 53.6225 235.385L51.4685 240.727C50.2052 243.861 50.1783 247.393 51.3937 250.548C52.6091 253.702 54.9672 256.22 57.9494 257.548L431.822 423.974C434.804 425.302 438.166 425.33 441.168 424.053C444.17 422.776 446.567 420.298 447.83 417.164L449.984 411.822C451.247 408.688 451.274 405.156 450.059 402.001C448.843 398.847 446.485 396.329 443.503 395.001Z" fill="#1B151C"/>
<path d="M155.471 238.448C147.42 234.864 140.561 228.852 135.762 221.172C130.962 213.492 128.438 204.489 128.508 195.302C128.578 186.114 131.239 177.155 136.155 169.557C141.071 161.959 148.021 156.063 156.126 152.615C164.231 149.167 173.126 148.322 181.688 150.187C190.25 152.051 198.094 156.542 204.227 163.09C210.36 169.639 214.507 177.951 216.144 186.977C217.781 196.002 216.834 205.335 213.424 213.795C208.839 225.13 200.163 234.091 189.299 238.713C178.434 243.335 166.269 243.24 155.471 238.448ZM189.507 154.026C181.668 150.536 173.02 149.567 164.657 151.242C156.294 152.917 148.591 157.16 142.523 163.435C136.455 169.71 132.294 177.735 130.566 186.495C128.838 195.254 129.621 204.356 132.816 212.648C136.011 220.94 141.474 228.051 148.515 233.08C155.556 238.11 163.858 240.833 172.371 240.904C180.885 240.976 189.227 238.393 196.344 233.483C203.46 228.573 209.031 221.555 212.352 213.318C216.792 202.27 216.881 189.824 212.598 178.708C208.315 167.592 200.011 158.716 189.507 154.026V154.026Z" fill="#1B151C"/>
<path d="M591.688 218.876L455.104 158.076L454.651 159.202L591.234 220.001L591.688 218.876Z" fill="#1B151C"/>
<path d="M631.496 587.095L238.884 412.327L238.43 413.453L631.042 588.221L631.496 587.095Z" fill="#1B151C"/>
<path d="M240.238 474.001L103.654 413.202L103.2 414.327L239.784 475.126L240.238 474.001Z" fill="#1B151C"/>
<path d="M290.998 428.526L276 421.85L269.647 437.609L284.645 444.285L290.998 428.526Z" fill="#60006B"/>
<path d="M297.381 439.333L279.169 431.226L286.884 412.091L305.095 420.197L297.381 439.333ZM280.297 430.747L296.924 438.149L303.968 420.677L287.341 413.275L280.297 430.747Z" fill="#1B151C"/>
<path d="M584.884 208.848L569.886 202.172L563.533 217.931L578.53 224.607L584.884 208.848Z" fill="#60006B"/>
<path d="M591.267 219.655L573.056 211.548L580.771 192.412L598.982 200.519L591.267 219.655ZM574.183 211.069L590.81 218.47L597.854 200.998L581.227 193.597L574.183 211.069Z" fill="#1B151C"/>
<path d="M616.122 573.252L601.125 566.576L594.771 582.335L609.769 589.011L616.122 573.252Z" fill="#60006B"/>
<path d="M622.505 584.059L604.294 575.953L612.009 556.817L630.22 564.924L622.505 584.059ZM605.421 575.473L622.049 582.875L629.093 565.403L612.465 558.001L605.421 575.473Z" fill="#1B151C"/>
<path d="M602.196 346.201L595.448 362.94L611.377 370.03L618.125 353.292L602.196 346.201ZM610.979 368.997L596.431 362.521L602.594 347.235L617.142 353.711L610.979 368.997Z" fill="#1B151C"/>
<path d="M171.492 444.727C162.275 440.624 154.424 433.742 148.929 424.95C143.435 416.159 140.546 405.853 140.626 395.336C140.706 384.818 143.753 374.562 149.38 365.864C155.008 357.166 162.963 350.417 172.241 346.47C181.519 342.524 191.702 341.556 201.503 343.691C211.304 345.825 220.283 350.966 227.304 358.462C234.325 365.958 239.072 375.474 240.946 385.806C242.82 396.137 241.736 406.821 237.832 416.505C232.584 429.481 222.652 439.739 210.215 445.03C197.779 450.321 183.852 450.212 171.492 444.727ZM210.52 347.922C201.515 343.914 191.582 342.801 181.975 344.725C172.369 346.649 163.521 351.523 156.551 358.731C149.581 365.938 144.801 375.156 142.817 385.218C140.832 395.28 141.732 405.734 145.401 415.259C149.071 424.784 155.347 432.951 163.434 438.728C171.521 444.505 181.057 447.633 190.836 447.715C200.615 447.798 210.198 444.831 218.372 439.191C226.547 433.551 232.946 425.49 236.761 416.028C241.861 403.339 241.962 389.042 237.043 376.274C232.123 363.506 222.585 353.31 210.52 347.922V347.922Z" fill="#1B151C"/>
</g>
<g filter="url(#filter1_d)">
<path d="M469.507 342.367L468.233 341.8L483.018 305.126C484.142 302.339 484.733 299.346 484.756 296.319C484.779 293.292 484.234 290.289 483.153 287.483C482.072 284.677 480.475 282.123 478.455 279.965C476.434 277.807 474.028 276.089 471.376 274.908L397.431 241.992C394.778 240.811 391.93 240.191 389.049 240.167C386.168 240.142 383.311 240.715 380.641 241.851C377.97 242.987 375.539 244.664 373.485 246.788C371.432 248.911 369.797 251.439 368.673 254.226L287.557 455.423C286.434 458.21 285.843 461.203 285.82 464.23C285.797 467.257 286.342 470.26 287.423 473.066C288.504 475.872 290.1 478.426 292.121 480.584C294.142 482.742 296.547 484.46 299.2 485.641L373.145 518.557C375.798 519.738 378.646 520.358 381.527 520.382C384.408 520.406 387.265 519.834 389.935 518.698C392.606 517.562 395.037 515.885 397.09 513.761C399.144 511.638 400.779 509.11 401.903 506.323L457.708 367.905L458.982 368.473L469.507 342.367Z" fill="#1B151C"/>
<path d="M478.214 304.459L397.217 505.362C395.522 509.567 392.308 512.892 388.281 514.606C384.253 516.32 379.743 516.283 375.742 514.502L301.44 481.428C297.439 479.646 294.276 476.267 292.646 472.035C291.016 467.802 291.053 463.063 292.749 458.859L373.746 257.955C375.441 253.752 378.655 250.429 382.682 248.716C386.709 247.003 391.219 247.041 395.219 248.821L404.233 252.833C403.329 253.779 402.659 254.945 402.284 256.226C401.909 257.508 401.84 258.867 402.082 260.184C402.325 261.501 402.872 262.734 403.675 263.776C404.478 264.819 405.513 265.637 406.688 266.16L449.05 285.018C450.226 285.541 451.505 285.752 452.776 285.634C454.047 285.515 455.271 285.069 456.34 284.336C457.409 283.603 458.29 282.606 458.905 281.431C459.52 280.256 459.851 278.94 459.869 277.599L469.521 281.896C473.521 283.677 476.684 287.054 478.314 291.286C479.944 295.517 479.908 300.255 478.214 304.459V304.459Z" fill="#60006B"/>
<path d="M390.031 402.752L367.897 392.899L365.118 399.791L387.252 409.644L390.031 402.752Z" fill="#1B151C"/>
<path d="M438.423 361.003L362.771 327.327L361.581 330.281L437.232 363.957L438.423 361.003Z" fill="#1B151C"/>
<path d="M434.652 370.356L359 336.681L357.81 339.634L433.461 373.31L434.652 370.356Z" fill="#1B151C"/>
<path d="M430.881 379.71L355.229 346.034L354.038 348.988L429.69 382.664L430.881 379.71Z" fill="#1B151C"/>
<path d="M427.11 389.064L351.458 355.388L350.268 358.342L425.919 392.018L427.11 389.064Z" fill="#1B151C"/>
<path d="M423.339 398.417L347.688 364.742L346.497 367.695L422.148 401.371L423.339 398.417Z" fill="#1B151C"/>
<path d="M419.055 306.115L405.937 300.275L400.379 314.06L413.497 319.899L419.055 306.115Z" fill="#FF0B70"/>
<path opacity="0.1" d="M405.867 483.907L397.217 505.362C395.522 509.567 392.308 512.892 388.281 514.606C384.253 516.32 379.743 516.283 375.741 514.502L301.44 481.428C297.439 479.646 294.276 476.267 292.646 472.035C291.016 467.802 291.053 463.063 292.749 458.859L336.363 350.68L378.011 430.51L378.723 431.876L386.472 446.723L387.194 448.113L405.867 483.907Z" fill="black"/>
<path d="M334.788 488.593C347.765 494.37 362.741 487.998 368.239 474.363C373.736 460.727 367.673 444.99 354.696 439.214C341.719 433.437 326.743 439.808 321.245 453.444C315.748 467.08 321.811 482.816 334.788 488.593Z" fill="#FF0B70"/>
<path d="M343.99 486.03C338.163 483.436 333.199 479.085 329.726 473.528C326.253 467.97 324.426 461.454 324.477 454.806C324.528 448.157 326.453 441.673 330.011 436.174C333.569 430.676 338.598 426.409 344.463 423.914C350.329 421.419 356.766 420.807 362.963 422.156C369.159 423.506 374.835 426.756 379.273 431.495C383.712 436.234 386.713 442.249 387.898 448.781C389.082 455.312 388.397 462.066 385.929 468.189C382.611 476.392 376.333 482.877 368.47 486.222C360.608 489.566 351.804 489.497 343.99 486.03V486.03ZM368.496 425.246C362.881 422.746 356.687 422.053 350.697 423.252C344.708 424.452 339.191 427.491 334.845 431.985C330.499 436.479 327.518 442.227 326.281 448.5C325.043 454.774 325.604 461.293 327.892 467.232C330.181 473.171 334.094 478.264 339.136 481.866C344.179 485.468 350.125 487.418 356.222 487.47C362.32 487.521 368.295 485.671 373.392 482.154C378.489 478.637 382.479 473.611 384.858 467.712C388.038 459.799 388.101 450.885 385.033 442.924C381.966 434.962 376.019 428.605 368.496 425.246Z" fill="#1B151C"/>
</g>
<defs>
<filter id="filter0_d" x="-4" y="0" width="766.688" height="648" filterUnits="userSpaceOnUse" color-interpolation-filters="sRGB">
<feFlood flood-opacity="0" result="BackgroundImageFix"/>
<feColorMatrix in="SourceAlpha" type="matrix" values="0 0 0 0 0 0 0 0 0 0 0 0 0 0 0 0 0 0 127 0"/>
<feOffset dy="4"/>
<feGaussianBlur stdDeviation="2"/>
<feColorMatrix type="matrix" values="0 0 0 0 0 0 0 0 0 0 0 0 0 0 0 0 0 0 0.25 0"/>
<feBlend mode="normal" in2="BackgroundImageFix" result="effect1_dropShadow"/>
<feBlend mode="normal" in="SourceGraphic" in2="effect1_dropShadow" result="shape"/>
</filter>
<filter id="filter1_d" x="275" y="233" width="221.85" height="303.116" filterUnits="userSpaceOnUse" color-interpolation-filters="sRGB">
<feFlood flood-opacity="0" result="BackgroundImageFix"/>
<feColorMatrix in="SourceAlpha" type="matrix" values="0 0 0 0 0 0 0 0 0 0 0 0 0 0 0 0 0 0 127 0"/>
<feOffset dy="4"/>
<feGaussianBlur stdDeviation="2"/>
<feColorMatrix type="matrix" values="0 0 0 0 0 0 0 0 0 0 0 0 0 0 0 0 0 0 0.25 0"/>
<feBlend mode="normal" in2="BackgroundImageFix" result="effect1_dropShadow"/>
<feBlend mode="normal" in="SourceGraphic" in2="effect1_dropShadow" result="shape"/>
</filter>
</defs>
</svg>
