<svg width="1254" height="1082" viewBox="0 0 1254 1082" fill="none" xmlns="http://www.w3.org/2000/svg">
<g filter="url(#filter0_d)">
<path d="M251.72 652.332C281.348 665.521 315.542 650.975 328.094 619.842C340.646 588.709 326.802 552.779 297.173 539.59C267.545 526.401 233.351 540.948 220.8 572.081C208.248 603.213 222.091 639.143 251.72 652.332Z" fill="#FF0B70"/>
<path d="M263.77 647.965C293.398 661.154 327.592 646.608 340.144 615.475C352.695 584.343 338.852 548.413 309.223 535.224C279.595 522.035 245.401 536.581 232.849 567.714C220.298 598.847 234.141 634.777 263.77 647.965Z" fill="#60136C"/>
<path d="M1018.61 843.921L354.847 548.454L354.079 550.357L1017.84 845.824L1018.61 843.921Z" fill="#1B151C"/>
<path d="M863.139 293.381L627.546 188.508L629.603 183.406L522.775 135.852L520.718 140.955L284.153 35.6495C282.061 34.7179 279.814 34.2285 277.541 34.2094C275.268 34.1903 273.014 34.6417 270.908 35.5379C268.801 36.4341 266.883 37.7576 265.263 39.4327C263.643 41.1078 262.353 43.1018 261.466 45.3008L124.802 384.28C123.011 388.721 122.973 393.727 124.696 398.198C126.418 402.669 129.76 406.237 133.987 408.119L712.972 665.85C717.199 667.731 721.964 667.771 726.218 665.961C730.473 664.151 733.869 660.64 735.66 656.199L872.324 317.22C873.211 315.021 873.676 312.66 873.695 310.272C873.713 307.884 873.283 305.515 872.43 303.301C871.577 301.088 870.318 299.072 868.724 297.37C867.13 295.668 865.232 294.312 863.139 293.381V293.381Z" fill="#1B151C"/>
<path d="M845.778 320.558L277.651 67.66L141.884 404.413L710.011 657.311L845.778 320.558Z" fill="#60136C"/>
<path d="M564.933 184.708C568.151 186.141 571.865 184.561 573.228 181.179C574.592 177.798 573.088 173.895 569.87 172.463C566.652 171.03 562.938 172.61 561.574 175.992C560.211 179.373 561.715 183.276 564.933 184.708Z" fill="#60136C"/>
<path opacity="0.1" d="M547.536 584.987L141.884 404.413L277.651 67.6605L547.536 584.987Z" fill="#ED0D69"/>
<path d="M240.939 418.784C271.1 432.21 305.907 417.403 318.684 385.711C331.461 354.019 317.369 317.445 287.209 304.019C257.048 290.593 222.241 305.401 209.464 337.092C196.687 368.784 210.779 405.359 240.939 418.784Z" fill="#FF0B70"/>
<path d="M673.638 458.138L620.568 434.514L615.871 446.166L668.94 469.79L673.638 458.138Z" fill="#1B151C"/>
<path d="M774.37 395.977L592.984 315.234L590.971 320.228L772.357 400.971L774.37 395.977Z" fill="#1B151C"/>
<path d="M767.996 411.791L586.61 331.048L584.597 336.042L765.983 416.784L767.996 411.791Z" fill="#1B151C"/>
<path d="M761.62 427.604L580.234 346.862L578.221 351.855L759.607 432.598L761.62 427.604Z" fill="#1B151C"/>
<path d="M755.245 443.418L573.859 362.675L571.846 367.669L753.232 448.412L755.245 443.418Z" fill="#1B151C"/>
<path d="M748.869 459.231L567.483 378.489L565.47 383.483L746.856 464.225L748.869 459.231Z" fill="#1B151C"/>
<path d="M808.262 311.916L786.084 302.043L776.689 325.347L798.867 335.22L808.262 311.916Z" fill="#FF0B70"/>
<path d="M804.801 350.623L777.871 338.635L789.279 310.337L816.21 322.325L804.801 350.623ZM779.537 337.926L804.126 348.872L814.543 323.034L789.954 312.089L779.537 337.926Z" fill="#1B151C"/>
<path d="M749.797 667.799L694.352 643.118L696.044 638.92C696.088 638.811 696.111 638.694 696.112 638.575C696.113 638.456 696.092 638.339 696.049 638.229C696.007 638.119 695.944 638.018 695.865 637.934C695.786 637.849 695.691 637.782 695.587 637.736L676.577 629.273C676.473 629.227 676.362 629.203 676.249 629.202C676.136 629.201 676.024 629.223 675.919 629.268C675.814 629.312 675.719 629.378 675.639 629.461C675.558 629.545 675.494 629.644 675.45 629.753L673.758 633.951L661.876 628.662L663.569 624.464C663.613 624.355 663.636 624.238 663.637 624.119C663.638 624 663.616 623.882 663.574 623.772C663.532 623.662 663.469 623.562 663.39 623.478C663.31 623.393 663.216 623.326 663.112 623.279L644.102 614.817C643.998 614.771 643.887 614.747 643.774 614.746C643.661 614.745 643.549 614.767 643.444 614.812C643.339 614.856 643.244 614.922 643.163 615.005C643.083 615.089 643.019 615.188 642.975 615.297L641.282 619.495L629.401 614.206L631.093 610.008C631.138 609.899 631.161 609.782 631.162 609.663C631.163 609.544 631.141 609.426 631.099 609.316C631.056 609.206 630.994 609.106 630.915 609.022C630.835 608.937 630.741 608.87 630.637 608.823L611.627 600.361C611.523 600.315 611.411 600.291 611.298 600.29C611.185 600.289 611.073 600.311 610.969 600.356C610.864 600.4 610.769 600.466 610.688 600.549C610.608 600.633 610.544 600.732 610.499 600.841L608.807 605.039L596.926 599.75L598.618 595.552C598.662 595.443 598.685 595.325 598.686 595.207C598.687 595.088 598.666 594.97 598.624 594.86C598.581 594.75 598.519 594.65 598.439 594.565C598.36 594.481 598.266 594.414 598.162 594.367L579.152 585.905C579.048 585.859 578.936 585.834 578.823 585.834C578.71 585.833 578.598 585.855 578.493 585.9C578.389 585.944 578.293 586.01 578.213 586.093C578.132 586.176 578.068 586.275 578.024 586.385L576.332 590.582L564.451 585.294L566.143 581.096C566.187 580.987 566.21 580.869 566.211 580.751C566.212 580.632 566.191 580.514 566.148 580.404C566.106 580.294 566.043 580.194 565.964 580.109C565.885 580.025 565.79 579.957 565.686 579.911L546.677 571.449C546.573 571.403 546.461 571.378 546.348 571.377C546.235 571.376 546.123 571.399 546.018 571.443C545.914 571.488 545.818 571.554 545.738 571.637C545.657 571.72 545.593 571.819 545.549 571.929L543.857 576.126L531.975 570.838L533.668 566.64C533.712 566.531 533.735 566.413 533.736 566.295C533.737 566.176 533.715 566.058 533.673 565.948C533.631 565.838 533.568 565.738 533.489 565.653C533.41 565.569 533.315 565.501 533.211 565.455L514.201 556.993C514.097 556.947 513.986 556.922 513.873 556.921C513.76 556.92 513.648 556.943 513.543 556.987C513.438 557.032 513.343 557.098 513.262 557.181C513.182 557.264 513.118 557.363 513.074 557.473L511.381 561.67L499.5 556.381L501.193 552.184C501.237 552.074 501.26 551.957 501.261 551.838C501.262 551.72 501.24 551.602 501.198 551.492C501.155 551.382 501.093 551.282 501.014 551.197C500.934 551.113 500.84 551.045 500.736 550.999L351.825 484.712C351.721 484.666 351.61 484.642 351.497 484.641C351.384 484.64 351.272 484.662 351.167 484.707C351.062 484.751 350.967 484.817 350.886 484.9C350.806 484.984 350.742 485.083 350.698 485.192L349.005 489.39L337.124 484.101L338.816 479.903C338.861 479.794 338.884 479.677 338.885 479.558C338.885 479.439 338.864 479.321 338.822 479.211C338.779 479.101 338.717 479.001 338.637 478.917C338.558 478.832 338.464 478.765 338.36 478.718L319.35 470.256C319.246 470.21 319.134 470.186 319.021 470.185C318.908 470.184 318.796 470.206 318.692 470.251C318.587 470.295 318.492 470.361 318.411 470.444C318.331 470.528 318.266 470.627 318.222 470.736L316.53 474.934L304.649 469.645L306.341 465.447C306.385 465.338 306.408 465.22 306.409 465.102C306.41 464.983 306.389 464.865 306.347 464.755C306.304 464.645 306.241 464.545 306.162 464.461C306.083 464.376 305.989 464.309 305.885 464.262L286.875 455.8C286.771 455.754 286.659 455.73 286.546 455.729C286.433 455.728 286.321 455.75 286.216 455.795C286.112 455.839 286.016 455.905 285.936 455.988C285.855 456.071 285.791 456.171 285.747 456.28L284.055 460.477L272.174 455.189L273.866 450.991C273.91 450.882 273.933 450.764 273.934 450.646C273.935 450.527 273.914 450.409 273.871 450.299C273.829 450.189 273.766 450.089 273.687 450.004C273.608 449.92 273.513 449.852 273.409 449.806L254.4 441.344C254.296 441.298 254.184 441.273 254.071 441.272C253.958 441.271 253.846 441.294 253.741 441.338C253.636 441.383 253.541 441.449 253.461 441.532C253.38 441.615 253.316 441.714 253.272 441.824L251.58 446.021L239.698 440.733L241.391 436.535C241.435 436.426 241.458 436.308 241.459 436.19C241.46 436.071 241.438 435.953 241.396 435.843C241.354 435.733 241.291 435.633 241.212 435.548C241.133 435.464 241.038 435.396 240.934 435.35L221.924 426.888C221.82 426.842 221.709 426.817 221.596 426.816C221.483 426.815 221.371 426.838 221.266 426.882C221.161 426.927 221.066 426.993 220.985 427.076C220.905 427.159 220.841 427.258 220.797 427.368L219.104 431.565L207.223 426.276L208.916 422.079C208.96 421.969 208.983 421.852 208.984 421.733C208.985 421.615 208.963 421.497 208.921 421.387C208.878 421.277 208.816 421.177 208.737 421.092C208.657 421.008 208.563 420.94 208.459 420.894L189.449 412.432C189.345 412.385 189.233 412.361 189.12 412.36C189.008 412.359 188.895 412.382 188.791 412.426C188.686 412.471 188.591 412.537 188.51 412.62C188.43 412.703 188.366 412.802 188.322 412.912L186.629 417.109L174.748 411.82L176.44 407.623C176.484 407.513 176.508 407.396 176.508 407.277C176.509 407.159 176.488 407.041 176.446 406.931C176.403 406.821 176.341 406.721 176.261 406.636C176.182 406.551 176.088 406.484 175.984 406.438L156.974 397.976C156.87 397.929 156.758 397.905 156.645 397.904C156.532 397.903 156.42 397.926 156.316 397.97C156.211 398.015 156.115 398.08 156.035 398.164C155.954 398.247 155.89 398.346 155.846 398.455L154.154 402.653L117.718 386.434C112.677 384.19 106.993 384.142 101.918 386.301C96.8422 388.46 92.7911 392.649 90.6552 397.947L87.0137 406.979C84.8779 412.277 84.8323 418.249 86.8871 423.582C88.9419 428.915 92.9287 433.172 97.9704 435.416L730.049 716.781C735.091 719.026 740.775 719.074 745.85 716.915C750.925 714.755 754.976 710.566 757.112 705.269L760.754 696.236C762.89 690.939 762.935 684.966 760.88 679.633C758.826 674.3 754.839 670.043 749.797 667.799Z" fill="#1B151C"/>
<path d="M262.843 403.126C249.232 397.067 237.636 386.903 229.522 373.919C221.408 360.935 217.14 345.715 217.259 330.182C217.377 314.649 221.876 299.503 230.187 286.657C238.498 273.811 250.248 263.844 263.95 258.015C277.652 252.186 292.692 250.757 307.166 253.909C321.641 257.062 334.902 264.653 345.27 275.725C355.639 286.796 362.651 300.849 365.418 316.108C368.186 331.366 366.585 347.144 360.819 361.447C353.069 380.61 338.401 395.76 320.033 403.574C301.665 411.388 281.098 411.227 262.843 403.126ZM320.386 260.399C307.132 254.5 292.512 252.862 278.373 255.694C264.234 258.526 251.212 265.699 240.953 276.308C230.694 286.916 223.659 300.483 220.738 315.292C217.817 330.102 219.14 345.489 224.542 359.508C229.943 373.527 239.18 385.548 251.083 394.051C262.986 402.554 277.022 407.157 291.415 407.279C305.808 407.4 319.912 403.034 331.943 394.732C343.975 386.431 353.393 374.567 359.008 360.64C366.514 341.963 366.663 320.921 359.423 302.128C352.182 283.336 338.143 268.329 320.386 260.399V260.399Z" fill="#1B151C"/>
<path d="M1000.32 370.037L769.411 267.248L768.644 269.151L999.556 371.94L1000.32 370.037Z" fill="#1B151C"/>
<path d="M1067.62 992.558L403.863 697.09L403.096 698.993L1066.86 994.461L1067.62 992.558Z" fill="#1B151C"/>
<path d="M406.151 801.358L175.239 698.569L174.472 700.472L405.384 803.261L406.151 801.358Z" fill="#1B151C"/>
<path d="M491.967 724.477L466.612 713.19L455.871 739.832L481.226 751.119L491.967 724.477Z" fill="#60136C"/>
<path d="M502.758 742.747L471.97 729.042L485.013 696.691L515.801 710.396L502.758 742.747ZM473.875 728.231L501.986 740.745L513.895 711.207L485.784 698.693L473.875 728.231Z" fill="#1B151C"/>
<path d="M988.818 353.083L963.463 341.796L952.722 368.439L978.077 379.725L988.818 353.083Z" fill="#60136C"/>
<path d="M999.61 371.354L968.821 357.649L981.864 325.297L1012.65 339.002L999.61 371.354ZM970.727 356.838L998.838 369.351L1010.75 339.813L982.636 327.3L970.727 356.838Z" fill="#1B151C"/>
<path d="M1041.63 969.154L1016.28 957.868L1005.53 984.51L1030.89 995.797L1041.63 969.154Z" fill="#60136C"/>
<path d="M1052.42 987.425L1021.63 973.72L1034.68 941.369L1065.47 955.074L1052.42 987.425ZM1023.54 972.909L1051.65 985.423L1063.56 955.885L1035.45 943.371L1023.54 972.909Z" fill="#1B151C"/>
<path d="M1018.09 585.297L1006.68 613.595L1033.61 625.583L1045.02 597.285L1018.09 585.297ZM1032.94 623.835L1008.34 612.887L1018.76 587.044L1043.35 597.992L1032.94 623.835Z" fill="#1B151C"/>
<path d="M289.927 751.866C274.345 744.93 261.071 733.295 251.783 718.432C242.494 703.568 237.609 686.145 237.745 668.364C237.88 650.583 243.031 633.244 252.545 618.539C262.059 603.834 275.509 592.424 291.194 585.752C306.879 579.079 324.096 577.443 340.666 581.052C357.235 584.661 372.415 593.351 384.284 606.025C396.154 618.698 404.18 634.786 407.348 652.253C410.517 669.719 408.684 687.781 402.084 704.154C393.211 726.091 376.421 743.434 355.394 752.379C334.368 761.323 310.824 761.139 289.927 751.866ZM355.909 588.206C340.686 581.429 323.892 579.548 307.651 582.801C291.41 586.054 276.452 594.294 264.668 606.479C252.884 618.664 244.804 634.248 241.449 651.259C238.093 668.27 239.614 685.944 245.818 702.047C252.023 718.15 262.632 731.958 276.305 741.725C289.977 751.492 306.099 756.779 322.632 756.919C339.164 757.058 355.365 752.043 369.185 742.507C383.005 732.971 393.823 719.344 400.272 703.348C408.894 681.894 409.066 657.724 400.749 636.138C392.432 614.552 376.306 597.314 355.909 588.206V588.206Z" fill="#1B151C"/>
</g>
<g filter="url(#filter1_d)">
<path d="M1115.68 645.224L1113.53 644.266L1138.52 582.263C1140.42 577.551 1141.42 572.491 1141.46 567.374C1141.5 562.256 1140.58 557.18 1138.75 552.436C1136.92 547.692 1134.22 543.373 1130.81 539.725C1127.39 536.077 1123.32 533.172 1118.84 531.176L993.826 475.528C989.341 473.531 984.526 472.482 979.656 472.441C974.785 472.4 969.955 473.368 965.44 475.288C960.925 477.209 956.815 480.045 953.343 483.635C949.872 487.225 947.107 491.498 945.207 496.21L808.071 836.359C806.171 841.071 805.173 846.131 805.134 851.249C805.095 856.366 806.016 861.442 807.844 866.186C809.671 870.93 812.371 875.249 815.787 878.897C819.203 882.545 823.27 885.45 827.755 887.446L952.768 943.095C957.252 945.091 962.067 946.14 966.938 946.181C971.808 946.222 976.639 945.254 981.154 943.334C985.668 941.413 989.779 938.577 993.25 934.987C996.722 931.397 999.487 927.124 1001.39 922.412L1095.73 688.4L1097.89 689.358L1115.68 645.224Z" fill="#1B151C"/>
<path d="M1130.4 581.135L993.465 920.787C990.6 927.896 985.166 933.517 978.357 936.415C971.548 939.313 963.923 939.25 957.158 936.24L831.542 880.323C824.778 877.311 819.43 871.599 816.675 864.443C813.919 857.288 813.982 849.275 816.848 842.168L953.784 502.516C956.65 495.41 962.084 489.791 968.892 486.895C975.7 483.999 983.324 484.063 990.087 487.072L1005.33 493.856C1003.8 495.456 1002.67 497.425 1002.03 499.592C1001.4 501.759 1001.28 504.057 1001.69 506.283C1002.1 508.509 1003.02 510.595 1004.38 512.357C1005.74 514.119 1007.49 515.503 1009.48 516.387L1081.1 548.268C1083.08 549.152 1085.25 549.51 1087.39 549.309C1089.54 549.108 1091.61 548.355 1093.42 547.116C1095.23 545.877 1096.72 544.19 1097.76 542.203C1098.8 540.217 1099.36 537.993 1099.39 535.726L1115.7 542.989C1122.47 546.001 1127.81 551.711 1130.57 558.864C1133.33 566.018 1133.26 574.029 1130.4 581.135V581.135Z" fill="#60136C"/>
<path d="M981.315 747.312L943.895 730.655L939.197 742.307L976.617 758.964L981.315 747.312Z" fill="#1B151C"/>
<path d="M1063.13 676.73L935.23 619.797L933.217 624.791L1061.12 681.724L1063.13 676.73Z" fill="#1B151C"/>
<path d="M1056.75 692.543L928.854 635.61L926.841 640.604L1054.74 697.537L1056.75 692.543Z" fill="#1B151C"/>
<path d="M1050.38 708.357L922.479 651.424L920.466 656.418L1048.36 713.351L1050.38 708.357Z" fill="#1B151C"/>
<path d="M1044 724.171L916.104 667.237L914.09 672.231L1041.99 729.164L1044 724.171Z" fill="#1B151C"/>
<path d="M1037.63 739.984L909.729 683.051L907.715 688.045L1035.61 744.978L1037.63 739.984Z" fill="#1B151C"/>
<path d="M1030.38 583.935L1008.21 574.063L998.811 597.367L1020.99 607.24L1030.38 583.935Z" fill="#FF0B70"/>
<path opacity="0.1" d="M1008.09 884.516L993.464 920.787C990.6 927.896 985.165 933.517 978.357 936.415C971.548 939.313 963.922 939.25 957.158 936.24L831.541 880.323C824.778 877.311 819.43 871.599 816.674 864.443C813.919 857.288 813.981 849.275 816.848 842.168L890.583 659.278L960.994 794.24L962.199 796.55L975.299 821.651L976.519 824.001L1008.09 884.516Z" fill="black"/>
<path d="M887.921 892.437C909.86 902.203 935.179 891.432 944.473 868.379C953.767 845.326 943.516 818.721 921.577 808.956C899.639 799.19 874.319 809.961 865.025 833.014C855.731 856.066 865.982 882.671 887.921 892.437Z" fill="#FF0B70"/>
<path d="M903.477 888.104C893.626 883.719 885.235 876.364 879.363 866.967C873.491 857.571 870.402 846.556 870.488 835.315C870.574 824.075 873.83 813.113 879.844 803.817C885.859 794.521 894.362 787.307 904.278 783.089C914.194 778.871 925.078 777.837 935.553 780.118C946.028 782.399 955.624 787.893 963.128 795.905C970.632 803.917 975.706 814.088 977.709 825.13C979.712 836.172 978.553 847.59 974.38 857.941C968.772 871.809 958.157 882.773 944.864 888.428C931.572 894.083 916.688 893.966 903.477 888.104V888.104ZM944.908 785.341C935.415 781.115 924.944 779.942 914.817 781.97C904.691 783.999 895.364 789.136 888.016 796.734C880.668 804.332 875.63 814.049 873.538 824.656C871.446 835.263 872.394 846.283 876.263 856.324C880.131 866.364 886.746 874.974 895.272 881.064C903.797 887.154 913.85 890.451 924.158 890.538C934.467 890.625 944.568 887.498 953.185 881.552C961.802 875.606 968.548 867.109 972.569 857.135C977.945 843.758 978.052 828.687 972.867 815.227C967.681 801.768 957.626 791.02 944.908 785.341Z" fill="#1B151C"/>
</g>
<defs>
<filter id="filter0_d" x="-4" y="0" width="1290.66" height="1090" filterUnits="userSpaceOnUse" color-interpolation-filters="sRGB">
<feFlood flood-opacity="0" result="BackgroundImageFix"/>
<feColorMatrix in="SourceAlpha" type="matrix" values="0 0 0 0 0 0 0 0 0 0 0 0 0 0 0 0 0 0 127 0"/>
<feOffset dy="4"/>
<feGaussianBlur stdDeviation="2"/>
<feColorMatrix type="matrix" values="0 0 0 0 0 0 0 0 0 0 0 0 0 0 0 0 0 0 0.25 0"/>
<feBlend mode="normal" in2="BackgroundImageFix" result="effect1_dropShadow"/>
<feBlend mode="normal" in="SourceGraphic" in2="effect1_dropShadow" result="shape"/>
</filter>
<filter id="filter1_d" x="789.604" y="460.325" width="369.541" height="506.93" filterUnits="userSpaceOnUse" color-interpolation-filters="sRGB">
<feFlood flood-opacity="0" result="BackgroundImageFix"/>
<feColorMatrix in="SourceAlpha" type="matrix" values="0 0 0 0 0 0 0 0 0 0 0 0 0 0 0 0 0 0 127 0"/>
<feOffset dy="4"/>
<feGaussianBlur stdDeviation="2"/>
<feColorMatrix type="matrix" values="0 0 0 0 0 0 0 0 0 0 0 0 0 0 0 0 0 0 0.25 0"/>
<feBlend mode="normal" in2="BackgroundImageFix" result="effect1_dropShadow"/>
<feBlend mode="normal" in="SourceGraphic" in2="effect1_dropShadow" result="shape"/>
</filter>
</defs>
</svg>
