<svg width="203" height="203" viewBox="0 0 203 203" fill="none" xmlns="http://www.w3.org/2000/svg">
<path d="M103.951 168C101.124 167.895 98.2968 167.744 95.4939 167.379C93.1434 167.075 90.7889 166.811 88.4465 166.446C84.7911 165.868 81.202 164.926 77.7319 163.635C74.198 162.371 70.7579 160.856 67.4373 159.103C64.4851 157.513 61.557 155.89 58.7623 154.032C56.1356 152.285 53.6738 150.299 51.4079 148.1C50.6688 147.386 49.958 146.644 49.2149 145.934C48.0206 144.716 46.9987 143.338 46.1778 141.841C44.9662 139.776 43.7546 137.698 42.6318 135.589C42.1959 134.751 41.8402 133.873 41.5697 132.968C40.8407 130.794 40.2392 128.579 39.7684 126.335C39.3645 124.124 39.1061 121.896 38.9041 119.657C38.7157 117.045 38.6645 114.424 38.7507 111.807C38.787 109.478 38.8839 107.149 39.0213 104.821C39.3555 99.2654 40.4076 93.7776 42.1512 88.4952C42.6278 87.0347 43.1447 85.5904 43.6496 84.138C43.8636 83.5294 43.8394 83.3915 43.2982 83.0426C41.1817 81.6894 39.2462 80.0697 37.5391 78.2229C35.8893 76.5076 34.4753 74.5783 33.3348 72.4863C31.9833 69.9429 31.2017 67.1334 31.0449 64.2547C30.8126 60.2914 31.4839 56.3271 33.0077 52.6638C33.8386 50.7007 34.9802 48.8854 36.3881 47.2883C37.4822 45.9585 38.7325 44.7665 40.1117 43.7385C42.5168 42.016 45.2778 40.8609 48.189 40.359C49.3634 40.143 50.5534 40.0236 51.7471 40.002C54.1948 40.0022 56.6156 40.5148 58.8552 41.5071C60.9939 42.4289 62.948 43.7335 64.6224 45.3572C66.8343 47.42 68.7995 49.7346 70.4784 52.2541C70.8258 52.7855 70.9348 52.8221 71.5123 52.5502C74.5849 51.1714 77.8006 50.14 81.1001 49.475C82.7156 49.118 84.3311 48.6636 85.9465 48.2336C88.1999 47.6195 90.4944 47.1693 92.8123 46.8867C95.0497 46.623 97.2831 46.3309 99.5326 46.1889C102.201 46.0029 104.878 45.9731 107.549 46.0996C112.153 46.3483 116.718 47.0688 121.176 48.2498C124.136 49.0465 127.01 50.1336 129.758 51.4954C130.606 51.9011 131.446 52.3352 132.29 52.7572C132.88 53.0493 133.005 53.0249 133.36 52.4732C134.956 50.0461 136.819 47.8074 138.914 45.7994C140.709 43.9746 142.835 42.5109 145.178 41.4868C147.729 40.3569 150.513 39.8588 153.295 40.0344C157.653 40.363 161.643 41.7262 164.979 44.6269C168.529 47.7062 171.037 51.4873 172.136 56.1244C172.697 58.3529 172.987 60.6415 173 62.9402C173.006 67.3036 171.622 71.5544 169.05 75.0706C167.083 77.8208 164.682 80.2299 161.942 82.2028C161.89 82.2393 161.833 82.2758 161.781 82.3204C161.377 82.6288 161.308 82.7748 161.478 83.2657C161.764 84.0771 162.063 84.8885 162.354 85.6999C163.89 89.9769 165.136 94.3536 166.082 98.7999C166.514 100.849 166.938 102.897 167.293 104.958C168.035 109.309 168.264 113.731 167.976 118.136C167.774 121.373 167.334 124.591 166.659 127.763C166.122 130.242 165.324 132.656 164.276 134.964C163.297 137.227 162.133 139.405 160.795 141.475C160.574 141.792 160.337 142.097 160.084 142.388C159.495 143.127 158.897 143.857 158.311 144.595C157.944 145.058 157.601 145.541 157.221 145.991C156.91 146.368 156.563 146.713 156.231 147.07C155.828 147.476 155.448 147.906 155.052 148.315C151.438 152.031 147.331 155.228 142.847 157.817C140.665 159.122 138.409 160.298 136.091 161.338C130.198 163.888 124.005 165.668 117.662 166.637C114.807 167.12 111.931 167.448 109.056 167.712C107.38 167.87 105.663 167.907 103.951 168ZM156.611 120.079C156.628 118.517 156.45 116.959 156.082 115.442C155.721 113.653 155.146 111.915 154.37 110.265C152.774 106.914 150.488 104.07 147.972 101.4C145.653 98.9943 143.043 96.8899 140.202 95.1365C137.605 93.4283 134.684 92.2778 131.624 91.757C129.514 91.4038 127.361 91.4038 125.251 91.757C122.71 92.2107 120.274 93.1322 118.066 94.4752C117.456 94.8323 116.883 95.2509 116.358 95.7247C114.777 97.2009 113.501 98.9751 112.602 100.946C112.161 101.88 111.895 102.886 111.814 103.916C111.763 105.08 111.82 106.247 111.984 107.401C112.324 110.606 113.377 113.694 115.065 116.436C117.252 119.967 119.767 123.281 122.577 126.335C124.964 128.923 127.367 131.495 130 133.844C131.207 134.949 132.58 135.857 134.067 136.534C135.439 137.188 136.919 137.581 138.433 137.694C140.433 137.775 142.434 137.556 144.37 137.045C147.258 136.306 149.888 134.785 151.975 132.647C154.281 130.307 155.609 127.373 156.3 124.197C156.546 122.839 156.65 121.459 156.611 120.079ZM50.5274 120.27C50.5048 122.115 50.711 123.956 51.1413 125.751C51.3107 126.524 51.5292 127.285 51.7956 128.031C52.3921 129.487 53.2095 130.842 54.2188 132.047C55.5887 133.841 57.4291 135.216 59.5336 136.019C61.1151 136.601 62.7748 136.94 64.4568 137.025C65.4617 137.135 66.477 137.105 67.4737 136.936C69.4394 136.546 71.3359 135.862 73.0995 134.907C74.5794 134.14 75.9796 133.227 77.2795 132.181C77.8934 131.657 78.4911 131.094 79.0444 130.517C80.0258 129.524 81.0395 128.55 81.9482 127.491C83.4713 125.71 84.9028 123.852 86.2373 121.925C87.9451 119.538 89.454 117.014 90.7485 114.379C92.4359 110.956 92.9158 107.06 92.1095 103.328C91.685 101.067 90.5413 99.005 88.8503 97.453C87.0389 95.7991 84.8862 94.5675 82.546 93.8463C80.0003 93.054 77.3197 92.7958 74.6706 93.0877C73.2212 93.2803 71.795 93.6202 70.4138 94.1019C67.8203 94.9478 65.3813 96.2126 63.1927 97.8465C61.4032 99.1631 59.7511 100.658 58.2615 102.309C57.7768 102.849 57.272 103.368 56.7995 103.932C56.3001 104.479 55.831 105.054 55.394 105.652C54.7398 106.593 54.1259 107.563 53.5362 108.545C52.0485 110.991 51.1151 113.736 50.8021 116.586C50.6728 117.811 50.6122 119.044 50.5274 120.27ZM165.444 60.5628C165.444 60.1084 165.48 59.65 165.444 59.1996C165.39 58.5258 165.291 57.8562 165.149 57.1955C164.582 54.9578 163.443 52.9077 161.845 51.2479C160.838 50.1485 159.567 49.3271 158.154 48.8624C156.22 48.2024 154.15 48.0501 152.14 48.4202C150.605 48.7313 149.123 49.2671 147.742 50.0106C146.817 50.4538 145.932 50.9764 145.097 51.5725C143.439 52.8712 141.947 54.37 140.654 56.0352C140.278 56.4955 140.003 57.0306 139.847 57.6053C139.737 57.9056 139.74 58.2354 139.855 58.5338C139.969 58.8321 140.187 59.0787 140.469 59.2281C142.015 60.1845 143.472 61.2789 144.822 62.498C145.63 63.212 146.494 63.8652 147.245 64.632C148.257 65.6438 149.209 66.714 150.097 67.837C151.49 69.6342 152.815 71.4883 154.103 73.3626C154.753 74.2998 155.266 75.3343 155.844 76.3242C155.886 76.4358 155.951 76.5373 156.035 76.6222C156.118 76.7072 156.218 76.7737 156.329 76.8176C156.44 76.8615 156.558 76.8817 156.677 76.8771C156.796 76.8725 156.912 76.8431 157.019 76.7908C157.715 76.5875 158.359 76.2376 158.909 75.7643C159.833 74.9475 160.648 74.0133 161.332 72.9853C162.603 71.1083 163.601 69.0592 164.297 66.8998C165.025 64.8656 165.412 62.7243 165.444 60.5628ZM38.4962 62.3844C38.5972 63.0619 38.6901 63.9382 38.8597 64.7942C39.3458 67.0084 40.1455 69.1411 41.2345 71.1272C41.8003 72.2068 42.4771 73.2238 43.2538 74.1618C43.8555 74.9002 44.5704 75.5128 45.2085 76.1903C45.4579 76.4545 45.7639 76.6582 46.1032 76.7862C46.4426 76.9141 46.8064 76.9628 47.1673 76.9287C47.379 76.9301 47.5869 76.8719 47.7675 76.7608C47.9481 76.6497 48.0941 76.49 48.189 76.2999C48.991 74.8145 49.9482 73.4191 51.0444 72.1374C52.0217 70.9771 52.987 69.8046 53.9724 68.6565C54.5782 67.9546 55.2163 67.2812 55.8463 66.5996C56.2502 66.1452 56.6783 65.6746 57.1266 65.2405C57.8778 64.5143 58.6613 63.8246 59.4165 63.1025C60.402 62.1613 61.3807 61.2146 62.3526 60.2626C62.8655 59.7514 63.3542 59.2199 63.8429 58.6844C64.0217 58.5162 64.1403 58.2935 64.1804 58.0508C64.2206 57.8081 64.18 57.5588 64.065 57.3415C63.7035 56.5784 63.2206 55.8796 62.6353 55.2725C61.6499 54.2136 60.4464 53.4347 59.3115 52.5624C57.252 50.9964 54.8613 49.9275 52.3246 49.4385C51.2382 49.2195 50.1316 49.1059 49.0331 48.9679C48.7633 48.9467 48.4918 48.9603 48.2254 49.0085C47.0423 49.1902 45.8948 49.5571 44.8248 50.0958C44.1274 50.4265 43.469 50.8348 42.862 51.3129C41.8169 52.172 40.9719 53.2508 40.3863 54.4733C39.6643 55.755 39.1774 57.1567 38.9486 58.6114C38.8597 59.3132 38.7587 60.0151 38.6739 60.721C38.6012 61.2079 38.5568 61.6866 38.4962 62.3844ZM103.309 124.744V124.639C101.378 124.716 99.4437 124.761 97.5133 124.878C96.6253 124.947 95.7437 125.082 94.876 125.284C93.8594 125.48 92.9306 125.994 92.2226 126.753C91.9217 127.055 91.7519 127.465 91.7501 127.893C91.7435 128.196 91.7719 128.5 91.8349 128.797C92.0328 129.532 92.2388 130.262 92.4972 130.976C93.1921 132.736 94.0837 134.412 95.1547 135.97C96.027 137.313 96.9761 138.603 97.8646 139.938C98.2819 140.61 98.8137 141.203 99.4357 141.69C100.617 142.559 102.081 142.947 103.535 142.778C104.861 142.62 106.126 142.126 107.21 141.342C108.209 140.62 109.095 139.754 109.839 138.769C111.616 136.497 113.108 134.015 114.282 131.378C114.393 131.132 114.473 130.873 114.52 130.607C114.649 129.805 114.613 128.985 114.415 128.197C114.322 127.697 114.108 127.228 113.793 126.831C113.477 126.433 113.07 126.12 112.606 125.917C111.064 125.19 109.386 124.8 107.683 124.773C106.237 124.704 104.791 124.744 103.309 124.744Z" fill="#ED0D69"/>
<path d="M133 106.716C132.928 108.66 131.978 110.254 130.452 111.541C129.863 112.05 129.174 112.44 128.426 112.688C127.678 112.936 126.887 113.038 126.098 112.987C124.799 112.935 123.54 112.541 122.456 111.848C121.469 111.176 120.757 110.191 120.443 109.064C119.958 107.642 119.869 106.122 120.186 104.656C120.342 103.882 120.664 103.149 121.133 102.503C121.602 101.858 122.206 101.316 122.906 100.912C123.598 100.493 124.368 100.21 125.173 100.081C125.977 99.9515 126.801 99.9775 127.595 100.157C127.824 100.208 128.054 100.247 128.283 100.293C129.213 100.461 130.066 100.906 130.722 101.565C132.134 102.938 132.949 104.781 133 106.716Z" fill="#ED0D69"/>
<path d="M84.9978 107.137C85.0422 108.703 84.4127 110.01 83.5613 111.237C82.9142 112.138 82.0688 112.865 81.0958 113.357C79.8621 113.986 78.4589 114.16 77.1171 113.851C76.3596 113.686 75.6259 113.42 74.9341 113.059C74.4909 112.846 74.0962 112.537 73.776 112.155C72.932 111.171 72.3725 109.96 72.1619 108.661C71.946 107.458 71.946 106.224 72.1619 105.021C72.4458 103.501 73.2806 102.152 74.4942 101.252C75.201 100.711 76.0106 100.333 76.8691 100.142C77.7277 99.9513 78.6156 99.9527 79.4736 100.146C79.6229 100.175 79.7682 100.217 79.9175 100.238C80.6688 100.351 81.3867 100.635 82.0201 101.07C82.6534 101.504 83.1866 102.078 83.5814 102.751C84.4674 104.032 84.961 105.56 84.9978 107.137Z" fill="#ED0D69"/>
</svg>
